<?xml version="1.0" encoding="UTF-8"?>
<svg width="585px" height="580px" viewBox="0 0 585 580" version="1.1" xmlns="http://www.w3.org/2000/svg" xmlns:xlink="http://www.w3.org/1999/xlink">
    <title>mater</title>
    <defs>
        <radialGradient cx="34.6707162%" cy="40.3485804%" fx="34.6707162%" fy="40.3485804%" r="71.480658%" gradientTransform="translate(0.346707,0.403486),scale(0.962532,1.000000),rotate(32.519220),scale(1.000000,1.115363),translate(-0.346707,-0.403486)" id="radialGradient-1">
            <stop stop-color="#C23017" offset="0%"></stop>
            <stop stop-color="#3A0404" offset="100%"></stop>
        </radialGradient>
        <radialGradient cx="31.3566161%" cy="38.3974312%" fx="31.3566161%" fy="38.3974312%" r="16.0189438%" gradientTransform="translate(0.313566,0.383974),scale(0.962532,1.000000),rotate(34.592838),scale(1.000000,1.599575),translate(-0.313566,-0.383974)" id="radialGradient-2">
            <stop stop-color="#FDA29B" offset="0%"></stop>
            <stop stop-color="#982412" stop-opacity="0" offset="100%"></stop>
        </radialGradient>
        <radialGradient cx="19.0022826%" cy="62.4822738%" fx="19.0022826%" fy="62.4822738%" r="10.4601594%" gradientTransform="translate(0.190023,0.624823),scale(0.962532,1.000000),rotate(40.771655),scale(1.000000,0.950097),translate(-0.190023,-0.624823)" id="radialGradient-3">
            <stop stop-color="#D590B9" offset="0%"></stop>
            <stop stop-color="#982412" stop-opacity="0" offset="100%"></stop>
        </radialGradient>
        <radialGradient cx="40.3593816%" cy="77.5476203%" fx="40.3593816%" fy="77.5476203%" r="27.0215452%" gradientTransform="translate(0.403594,0.775476),scale(0.962532,1.000000),rotate(109.315058),scale(1.000000,1.193839),translate(-0.403594,-0.775476)" id="radialGradient-4">
            <stop stop-color="#3C0303" offset="0%"></stop>
            <stop stop-color="#4F0C04" stop-opacity="0" offset="100%"></stop>
        </radialGradient>
        <path d="M277.521922,0.100226459 C310.521922,0.100226459 397.521922,-6.89977354 499.521922,96.1002265 C567.521922,164.766893 591.188589,252.100226 570.521922,358.100226 C555.188589,403.43356 541.855255,434.43356 530.521922,451.100226 C513.521922,476.100226 423.521922,556.100226 311.521922,556.100226 C236.855255,556.100226 178.855255,538.43356 137.521922,503.100226 C69.5219221,459.766893 28.5219221,417.100226 14.5219221,375.100226 C-6.47807789,312.100226 -11.4780779,210.100226 46.5219221,132.100226 C85.1885888,80.1002265 135.855255,40.7668931 198.521922,14.1002265 C229.188589,4.76689313 255.521922,0.100226459 277.521922,0.100226459 Z" id="path-5"></path>
    </defs>
    <g id="Page-1" stroke="none" stroke-width="1" fill="none" fill-rule="evenodd">
        <g id="mater">
            <g id="fruit" transform="translate(7.000000, 0.000000)">
                <path d="M277.521922,0.100226459 C310.521922,0.100226459 397.521922,-6.89977354 499.521922,96.1002265 C567.521922,164.766893 591.188589,252.100226 570.521922,358.100226 C555.188589,403.43356 541.855255,434.43356 530.521922,451.100226 C513.521922,476.100226 423.521922,556.100226 311.521922,556.100226 C236.855255,556.100226 178.855255,538.43356 137.521922,503.100226 C69.5219221,459.766893 28.5219221,417.100226 14.5219221,375.100226 C-6.47807789,312.100226 -11.4780779,210.100226 46.5219221,132.100226 C85.1885888,80.1002265 135.855255,40.7668931 198.521922,14.1002265 C229.188589,4.76689313 255.521922,0.100226459 277.521922,0.100226459 Z" id="Path-11" fill="url(#radialGradient-1)"></path>
                <path d="M277.521922,0.100226459 C310.521922,0.100226459 397.521922,-6.89977354 499.521922,96.1002265 C567.521922,164.766893 591.188589,252.100226 570.521922,358.100226 C555.188589,403.43356 541.855255,434.43356 530.521922,451.100226 C513.521922,476.100226 423.521922,556.100226 311.521922,556.100226 C236.855255,556.100226 178.855255,538.43356 137.521922,503.100226 C69.5219221,459.766893 28.5219221,417.100226 14.5219221,375.100226 C-6.47807789,312.100226 -11.4780779,210.100226 46.5219221,132.100226 C85.1885888,80.1002265 135.855255,40.7668931 198.521922,14.1002265 C229.188589,4.76689313 255.521922,0.100226459 277.521922,0.100226459 Z" id="Path-11" fill="url(#radialGradient-2)"></path>
                <g id="Path-11">
                    <use fill="url(#radialGradient-3)" xlink:href="#path-5"></use>
                    <use fill="url(#radialGradient-4)" xlink:href="#path-5"></use>
                </g>
            </g>
            <g id="stem" transform="translate(0.000000, 380.000000)">
                <path d="M178.505833,10 L216,10 C247.670555,24.6666667 260.839166,39.3333333 255.505833,54 C250.1725,68.6666667 247.1725,81.3333333 246.505833,92 L210.505833,109 C180.505833,120.333333 159.839166,120.333333 148.505833,109 C131.505833,92 104.505833,37 123.505833,26 C136.1725,18.6666667 154.505833,13.3333333 178.505833,10 Z" id="Path-9" fill="#101007"></path>
                <path d="M95,97.9393939 C95,111.939394 120,169.939394 144,184.939394 C168,199.939394 204,205.939394 218,188.939394 C232,171.939394 246,146.939394 246,122.939394 C246,106.939394 245,96.9393939 243,92.9393939 L215,108.939394 C220.333333,126.939394 219.666667,142.606061 213,155.939394 C206.333333,169.272727 198.666667,177.272727 190,179.939394 C174.666667,181.272727 159.333333,173.272727 144,155.939394 C128.666667,138.606061 116.666667,120.939394 108,102.939394 C99.3333333,90.2727273 95,88.6060606 95,97.9393939 Z" id="Path-7" fill="#15170A"></path>
                <path d="M62,75.9083435 L115,67.9083435 C131.666667,56.5750102 143.333333,47.5750102 150,40.9083435 C156.666667,34.2416768 165,29.9083435 175,27.9083435 C182.333333,23.2416768 184.666667,19.2416768 182,15.9083435 C178,10.9083435 163,-8.09165651 143,3.90834349 C123,15.9083435 103,36.9083435 96,46.9083435 C91.3333333,53.5750102 80,63.2416768 62,75.9083435 Z" id="Path-2" fill="#3F472B"></path>
                <path d="M0,7 C2,17 6.66666667,27 14,37 C25,52 38,72 50,75 C58,77 74.3333333,75.6666667 99,71 L117,65 C89.6666667,68.3333333 71.6666667,67.3333333 63,62 C50,54 24,27 19,22 C15.6666667,18.6666667 9.33333333,13.6666667 0,7 Z" id="Path" fill="#424337"></path>
                <path d="M125,101 C130.333333,93.6666667 137,88.6666667 145,86 C153,83.3333333 176,78 214,70 C224,67.3333333 229,63 229,57 C229,48 240,38 219,38 C205,38 173.666667,41.3333333 125,48 L92,60 L125,101 Z" id="Path-4" fill="#231E12"></path>
                <path d="M91.5,70 C100.166667,90.6666667 106.5,101 110.5,101 C116.5,101 127.5,102 127.5,86 C127.5,70 129.5,54 116.5,54 C103.5,54 96.5,60 91.5,60 C88.1666667,60 88.1666667,63.3333333 91.5,70 Z" id="Path-3" fill="#9B9966"></path>
                <path d="M136.529412,92 C145.196078,120.666667 157.196078,141 172.529412,153 C195.529412,171 222.529412,184 251.529412,184 C270.862745,184 283.862745,185.333333 290.529412,188 L295.529412,184 C284.862745,177.333333 274.196078,174 263.529412,174 C247.529412,174 224.529412,173 206.529412,163 C188.529412,153 193.529412,156 172.529412,132 C158.529412,116 152.196078,102.666667 153.529412,92 C158.862745,85.3333333 156.862745,82 147.529412,82 C138.196078,82 134.529412,85.3333333 136.529412,92 Z" id="Path-8" fill="#394132"></path>
                <path d="M47,129 C41,126 41,99.2176834 41,99.2176834 C41,99.2176834 38,127.217683 38,136.217683 C38,145.217683 62,168.217683 79,168.217683 C96,168.217683 152,137.217683 165,129.217683 C173.666667,123.88435 186.333333,111.88435 203,93.2176834 L176,87.2176834 L118,121.217683 C96,136.551017 80.3333333,144.217683 71,144.217683 C61.6666667,144.217683 57,145.217683 57,147.217683 C54.3333333,137.072561 51,131 47,129 Z" id="Path-5" fill="#1B190A"></path>
                <path d="M52.3297412,70 L52.3297412,94 C50.5516213,108.666667 50.5516213,120.666667 52.3297412,130 C54.996921,144 57.6641008,161 63.8875204,163 C68.0364669,164.333333 70.4072934,166 71,168 C52.6260945,160 42.5500818,152.666667 40.7719619,146 C38.1047821,136 35.4376022,116 38.1047821,105 C40.7719619,94 46.9953815,76 49.6625613,73 C51.4406812,71 52.3297412,70 52.3297412,70 Z" id="Path-6" fill="#847252"></path>
                <polygon id="Path-10" fill="#393C2C" points="179 15 209 28 222 28 230 34 230 50 217 70 202 82 190 87 169 92 153 82 150 92 167 104 190 110 217 110 236 92 253 82 257 66 257 58 248 45 242 34 233 28 217 15 209 11 190 11"></polygon>
            </g>
        </g>
    </g>
</svg>