<?xml version="1.0" encoding="UTF-8"?>
<svg width="100px" height="73px" viewBox="0 0 100 73" version="1.1" xmlns="http://www.w3.org/2000/svg" xmlns:xlink="http://www.w3.org/1999/xlink">
    <!-- Generator: Sketch 52.3 (67297) - http://www.bohemiancoding.com/sketch -->
    <title>logo-white-small</title>
    <desc>Created with Sketch.</desc>
    <g id="Page-1" stroke="none" stroke-width="1" fill="none" fill-rule="evenodd">
        <g id="Group" fill="#FFFFFF">
            <path d="M55.216285,71.5114662 L55.216285,1.0076178 C57.9500361,0.348942559 60.8044971,0 63.740458,0 C83.7660511,0 100,16.2339489 100,36.259542 C100,56.285135 83.7660511,72.519084 63.740458,72.519084 C60.8044971,72.519084 57.9500361,72.1701414 55.216285,71.5114662 Z M63.4961832,42.2391858 L63.4961832,41.6666667 L62.1221374,41.6666667 L62.1221374,38.6437659 C62.1221374,37.56743 62.1221374,36.5139949 62.4198473,35.7582697 C62.7633588,34.9109415 63.6564885,33.7888041 64.6412214,33.7888041 C66.1755725,33.7888041 65.9465649,35.4147583 65.9465649,37.5445293 L65.9465649,41.6666667 L64.5038168,41.6666667 L64.5038168,42.2391858 L69.8167939,42.2391858 L69.8167939,41.6666667 L68.3740458,41.6666667 L68.3740458,38.1170483 C68.3740458,36.9720102 68.3969466,35.5521628 68.1679389,34.4300254 C67.9389313,33.3536896 66.3358779,33.0330789 65.4427481,33.0330789 C63.9083969,33.0330789 62.7175573,33.8575064 62.1450382,35.2315522 L62.0992366,35.2315522 L62.0992366,26.5979644 C60.7480916,26.8498728 59.3740458,26.9872774 57.9770992,26.9414758 L57.9770992,27.5139949 L59.6259542,27.5139949 L59.6259542,41.6666667 L58.1145038,41.6666667 L58.1145038,42.2391858 L63.4961832,42.2391858 Z M77.1221374,38.9185751 C77.1221374,39.3536896 77.0992366,39.7659033 76.9618321,40.1094148 C76.6870229,40.8422392 76.0916031,41.4605598 75.2900763,41.4605598 C74.2137405,41.4605598 73.8015267,40.7048346 73.8015267,39.697201 C73.8015267,37.8422392 75.7022901,37.6590331 77.1221374,37.6590331 L77.1221374,38.9185751 Z M77.1221374,37.178117 C75.0610687,37.0636132 71.3969466,37.6361323 71.3969466,40.3613232 C71.3969466,41.826972 72.4045802,42.5826972 73.778626,42.5826972 C75.0610687,42.5826972 76.2977099,41.9643766 77.1221374,40.956743 C77.259542,41.9643766 77.9007634,42.5826972 78.9083969,42.5826972 C79.870229,42.5826972 80.4885496,42.1017812 81.0839695,41.3689567 L80.8091603,41.0483461 C80.6259542,41.2315522 80.2824427,41.5750636 80.0076336,41.5750636 C79.7328244,41.5750636 79.4580153,41.437659 79.4580153,41.1399491 L79.4580153,35.0483461 C79.4580153,34.3384224 79.2519084,33.9720102 78.610687,33.6513995 C77.7175573,33.1933842 76.6641221,33.0330789 75.6793893,33.0330789 C74.2824427,33.0330789 72.0381679,33.6513995 72.0381679,35.3918575 C72.0381679,36.1246819 72.5877863,36.4681934 73.2290076,36.4681934 C73.7557252,36.4681934 74.3282443,36.0559796 74.3282443,35.4605598 C74.3282443,35.0254453 74.1450382,34.5445293 74.0076336,34.3613232 C73.6641221,33.9262087 74.740458,33.4910941 75.610687,33.4910941 C76,33.4910941 77.1221374,33.7201018 77.1221374,34.3155216 L77.1221374,37.178117 Z M87.8167939,42.2391858 L87.8167939,41.6666667 L86.1450382,41.6666667 L86.1450382,26.5979644 C84.7938931,26.8498728 83.4198473,26.9872774 82.0229008,26.9414758 L82.0229008,27.5139949 L83.6717557,27.5139949 L83.6717557,41.6666667 L81.9541985,41.6666667 L81.9541985,42.2391858 L87.8167939,42.2391858 Z M92.648855,29.5979644 C92.648855,28.8193384 93.2442748,27.0559796 94.3206107,27.0559796 C94.9389313,27.0559796 95.1221374,27.5139949 94.9389313,27.6284987 C94.5954198,27.8575064 94.3435115,28.1323155 94.3435115,28.56743 C94.3435115,29.1857506 94.8015267,29.5979644 95.4198473,29.5979644 C96.129771,29.5979644 96.6564885,29.1170483 96.6564885,28.4071247 C96.6564885,27.1704835 95.3969466,26.5979644 94.3435115,26.5979644 C93.9312977,26.5979644 93.5419847,26.6895674 93.1755725,26.826972 C90.610687,27.7888041 90.1755725,30.8804071 90.1755725,33.1704835 L88.3435115,33.1704835 L88.3435115,33.7430025 L90.1755725,33.7430025 L90.1755725,41.6666667 L88.389313,41.6666667 L88.389313,42.2391858 L94.6183206,42.2391858 L94.6183206,41.6666667 L92.648855,41.6666667 L92.648855,33.7430025 L94.8244275,33.7430025 L94.8244275,33.1704835 L92.648855,33.1704835 L92.648855,29.5979644 Z" id="Oval-1-Copy"></path>
            <path d="M5.8524173,37.178117 L5.8524173,34.3155216 C5.8524173,33.7201018 4.7302799,33.4910941 4.34096692,33.4910941 C3.47073791,33.4910941 2.39440204,33.9262087 2.73791349,34.3613232 C2.87531807,34.5445293 3.05852417,35.0254453 3.05852417,35.4605598 C3.05852417,36.0559796 2.48600509,36.4681934 1.95928753,36.4681934 C1.31806616,36.4681934 0.768447837,36.1246819 0.768447837,35.3918575 C0.768447837,33.6513995 3.01272265,33.0330789 4.40966921,33.0330789 C5.39440204,33.0330789 6.44783715,33.1933842 7.34096692,33.6513995 C7.9821883,33.9720102 8.18829517,34.3384224 8.18829517,35.0483461 L8.18829517,41.1399491 C8.18829517,41.437659 8.46310433,41.5750636 8.73791349,41.5750636 C9.01272265,41.5750636 9.3562341,41.2315522 9.5394402,41.0483461 L9.81424936,41.3689567 C9.21882952,42.1017812 8.60050891,42.5826972 7.63867684,42.5826972 C6.63104326,42.5826972 5.98982188,41.9643766 5.8524173,40.956743 C5.02798982,41.9643766 3.7913486,42.5826972 2.50890585,42.5826972 C1.13486005,42.5826972 0.127226463,41.826972 0.127226463,40.3613232 C0.127226463,37.6361323 3.7913486,37.0636132 5.8524173,37.178117 Z M5.8524173,38.9185751 L5.8524173,37.6590331 C4.43256997,37.6590331 2.53180662,37.8422392 2.53180662,39.697201 C2.53180662,40.7048346 2.94402036,41.4605598 4.02035623,41.4605598 C4.82188295,41.4605598 5.4173028,40.8422392 5.69211196,40.1094148 C5.82951654,39.7659033 5.8524173,39.3536896 5.8524173,38.9185751 Z M12.4478372,41.6666667 L12.4478372,27.5139949 L10.7989822,27.5139949 L10.7989822,26.9414758 C12.1959288,26.9872774 13.5699746,26.8498728 14.9211196,26.5979644 L14.9211196,34.7277354 C15.5165394,33.7201018 16.4783715,33.0330789 17.6463104,33.0330789 C20.2340967,33.0330789 22.0661578,35.4605598 22.0661578,37.9109415 C22.0661578,40.2926209 20.2798982,42.5826972 17.7150127,42.5826972 C16.5928753,42.5826972 15.5165394,41.9185751 14.9211196,41.0025445 L14.9211196,42.4223919 C13.524173,42.1704835 12.1501272,42.2391858 10.7989822,42.2391858 L10.7989822,41.6666667 L12.4478372,41.6666667 Z M19.3638677,39.9720102 L19.3638677,35.6208651 C19.3638677,34.4987277 18.8371501,33.4910941 17.6234097,33.4910941 C16.1806616,33.4910941 15.0356234,34.7964377 14.9211196,36.216285 L14.9211196,39.4223919 C14.9211196,40.8422392 16.2035623,42.1246819 17.6005089,42.1246819 C18.9058524,42.1246819 19.3638677,41.1399491 19.3638677,39.9720102 Z M24.0814249,37.8651399 C24.0814249,35.3002545 26.302799,33.0330789 28.8905852,33.0330789 C31.4783715,33.0330789 33.6997455,35.3002545 33.6997455,37.8651399 C33.6997455,40.4300254 31.4783715,42.5826972 28.8905852,42.5826972 C26.302799,42.5826972 24.0814249,40.4300254 24.0814249,37.8651399 Z M30.9745547,37.8651399 C30.9745547,35.2773537 31.1348601,33.4910941 28.8905852,33.4910941 C26.6463104,33.4910941 26.8066158,35.2773537 26.8066158,37.8651399 C26.8066158,40.8422392 26.8524173,42.1246819 28.8905852,42.1246819 C30.9287532,42.1246819 30.9745547,40.8422392 30.9745547,37.8651399 Z M42.8142494,42.4223919 L42.8142494,40.4071247 L42.7455471,40.4071247 C42.1043257,41.6895674 40.8676845,42.5826972 39.3791349,42.5826972 C37.1806616,42.5826972 36.6081425,41.437659 36.6081425,40.3613232 L36.6081425,33.7430025 L35.1195929,33.7430025 L35.1195929,33.1704835 C36.264631,33.216285 37.6615776,33.1246819 39.0356234,33.0788804 L39.0356234,40.2010178 C39.0356234,41.1399491 38.9669211,41.8498728 40.1348601,41.8498728 C40.9821883,41.8498728 42.8142494,40.9109415 42.8142494,38.1628499 L42.8142494,33.7430025 L41.0737913,33.7430025 L41.0737913,33.1704835 C42.4707379,33.216285 43.8676845,33.1246819 45.2417303,33.0788804 L45.2417303,41.6666667 L46.8447837,41.6666667 L46.8447837,42.2391858 C45.4936387,42.2391858 44.1424936,42.1704835 42.8142494,42.4223919 Z M49.4096692,33.4452926 L49.4096692,30.7888041 C50.2340967,30.7888041 51.0585242,30.697201 51.8829517,30.6513995 L51.8829517,33.4452926 L54.0585242,33.4452926 L54.0585242,34.1323155 L51.8829517,34.1323155 L51.8829517,40.4300254 C51.8829517,41.1628499 51.9058524,41.6895674 52.7760814,41.6895674 C53.5089059,41.6895674 53.9440204,41.1170483 54.173028,40.475827 L54.6310433,40.7048346 C54.1501272,41.9872774 53.1653944,42.5826972 51.8371501,42.5826972 C49.7531807,42.5826972 49.4096692,41.8727735 49.4096692,40.6132316 L49.4096692,34.1323155 L47.9440204,34.1323155 L47.9440204,33.4452926 L49.4096692,33.4452926 Z" id="abouthalf-copy"></path>
        </g>
    </g>
</svg>