<?xml version="1.0" encoding="UTF-8"?>
<svg width="595px" height="596px" viewBox="0 0 595 596" version="1.1" xmlns="http://www.w3.org/2000/svg" xmlns:xlink="http://www.w3.org/1999/xlink">
    <title>mask</title>
    <g id="Page-1" stroke="none" stroke-width="1" fill="none" fill-rule="evenodd">
        <g id="Artboard" transform="translate(-214.000000, -214.000000)" fill="#475DE1" stroke="#B8A21E" stroke-width="14.4">
            <g id="mask" transform="translate(128.000000, 128.000000)">
                <path d="M421.482886,96.2509105 L451.205827,131.691618 L494.667003,115.860535 L514.204429,157.786493 L560.282087,153.743422 L568.302555,199.297445 L613.856578,207.317913 L609.813507,253.395571 L651.739465,272.932997 L635.908382,316.394173 L671.349089,346.117114 L644.808859,384 L671.349089,421.882886 L635.908382,451.605827 L651.739465,495.067003 L609.813507,514.604429 L613.856578,560.682087 L568.302555,568.702555 L560.282087,614.256578 L514.204429,610.213507 L494.667003,652.139465 L451.205827,636.308382 L421.482886,671.749089 L383.6,645.208859 L345.717114,671.749089 L315.994173,636.308382 L272.532997,652.139465 L252.995571,610.213507 L206.917913,614.256578 L198.897445,568.702555 L153.343422,560.682087 L157.386493,514.604429 L115.460535,495.067003 L131.291618,451.605827 L95.8509105,421.882886 L122.391141,384 L95.8509105,346.117114 L131.291618,316.394173 L115.460535,272.932997 L157.386493,253.395571 L153.343422,207.317913 L198.897445,199.297445 L206.917913,153.743422 L252.995571,157.786493 L272.532997,115.860535 L315.994173,131.691618 L345.717114,96.2509105 L383.6,122.791141 L421.482886,96.2509105 Z"></path>
            </g>
        </g>
    </g>
</svg>