<?xml version="1.0" standalone="no"?>
<!DOCTYPE svg PUBLIC "-//W3C//DTD SVG 20010904//EN"
 "http://www.w3.org/TR/2001/REC-SVG-20010904/DTD/svg10.dtd">
<svg version="1.0" xmlns="http://www.w3.org/2000/svg"
 width="400.000000pt" height="400.000000pt" viewBox="0 0 400.000000 400.000000"
 preserveAspectRatio="xMidYMid meet">
<metadata>
Created by potrace 1.11, written by Peter Selinger 2001-2013
</metadata>
<g transform="translate(0.000000,400.000000) scale(0.100000,-0.100000)"
fill="#000000" stroke="none">
<path d="M0 2000 l0 -2000 2000 0 2000 0 0 2000 0 2000 -2000 0 -2000 0 0
-2000z m2660 1342 c326 -76 595 -261 775 -532 148 -222 218 -454 218 -720 -1
-332 -128 -643 -361 -878 -188 -190 -395 -304 -652 -359 -66 -14 -127 -18
-270 -17 -102 0 -203 5 -225 10 l-40 10 -3 1242 c-2 989 0 1244 10 1247 78 30
415 28 548 -3z m-1920 -966 c5 -14 9 -62 9 -108 -1 -46 0 -86 0 -91 1 -4 14
-1 31 8 40 21 86 19 136 -6 59 -28 87 -86 87 -179 0 -132 -61 -200 -178 -199
-63 0 -113 24 -142 68 -22 33 -23 41 -23 270 0 171 3 240 12 249 21 21 58 14
68 -12z m1254 -98 c8 -13 14 -38 12 -55 -2 -26 2 -33 17 -33 30 0 57 -19 57
-40 0 -21 -27 -40 -57 -40 -17 0 -18 -8 -15 -102 4 -123 5 -126 34 -130 28 -4
37 -48 13 -68 -22 -18 -88 2 -114 37 -19 23 -21 40 -21 144 0 113 -1 118 -21
121 -12 2 -27 11 -33 21 -14 22 3 51 33 55 18 3 21 10 21 46 0 65 44 91 74 44z
m-1494 -100 c68 -34 80 -67 80 -214 0 -104 -3 -125 -19 -145 -16 -21 -22 -22
-45 -11 -14 6 -26 16 -26 21 0 6 -16 1 -35 -11 -28 -16 -47 -19 -86 -16 -63 6
-100 33 -117 85 -11 35 -11 46 2 77 23 55 66 76 159 76 69 0 77 2 77 19 0 25
-46 61 -77 61 -13 0 -41 -9 -63 -20 -49 -25 -67 -25 -80 -1 -13 25 -5 46 27
67 61 39 139 44 203 12z m838 -4 c52 -30 77 -88 77 -174 0 -97 -23 -146 -86
-178 -35 -19 -56 -23 -106 -20 -66 4 -100 21 -136 69 -23 32 -37 128 -25 188
11 60 34 91 89 119 36 19 55 23 101 19 31 -3 70 -13 86 -23z m220 4 c8 -8 12
-52 12 -133 0 -139 6 -154 65 -162 32 -4 45 0 63 17 20 19 22 29 22 143 0 129
5 147 45 147 40 0 45 -18 45 -147 0 -154 -13 -193 -74 -223 -51 -24 -121 -26
-177 -3 -64 25 -79 67 -79 224 0 131 5 149 45 149 12 0 26 -5 33 -12z"/>
<path d="M2150 2381 c-6 -12 -10 -121 -10 -285 l0 -266 24 -15 c19 -13 29 -14
45 -6 18 10 20 23 23 141 3 145 8 156 70 167 30 4 41 1 62 -20 25 -25 26 -30
26 -152 0 -124 0 -126 25 -137 21 -9 28 -8 45 7 18 16 20 31 20 149 0 151 -12
189 -70 219 -42 22 -121 18 -148 -7 -10 -9 -22 -16 -25 -16 -4 0 -7 49 -7 108
0 71 -4 112 -12 120 -18 18 -56 14 -68 -7z"/>
<path d="M2959 2373 c-6 -17 -9 -119 -7 -269 3 -266 4 -267 69 -294 68 -28
113 42 49 75 l-30 16 0 237 c0 252 -2 262 -47 262 -16 0 -27 -8 -34 -27z"/>
<path d="M3260 2362 c-48 -24 -80 -75 -80 -127 0 -37 -3 -44 -24 -49 -26 -6
-39 -28 -30 -51 4 -8 17 -18 30 -21 24 -6 24 -7 24 -150 0 -135 1 -144 21
-154 16 -9 26 -8 45 5 24 15 24 18 24 155 l0 140 26 0 c35 0 64 17 64 38 0 27
-20 42 -57 42 -32 0 -33 2 -33 38 0 43 23 72 58 72 18 0 52 23 52 36 0 3 -5
14 -10 25 -14 24 -63 25 -110 1z"/>
<path d="M2625 2182 c-47 -22 -68 -45 -63 -68 6 -33 32 -39 80 -16 24 12 55
22 69 22 35 0 69 -27 69 -56 0 -23 -2 -24 -77 -24 -115 0 -163 -36 -163 -121
0 -76 64 -125 152 -117 26 3 56 12 66 21 15 14 19 14 41 -4 28 -23 35 -24 55
-3 13 12 16 41 16 146 0 146 -10 182 -61 212 -46 27 -135 31 -184 8z m155
-233 c0 -34 -18 -57 -55 -69 -43 -14 -88 4 -93 38 -6 40 14 52 84 52 58 0 64
-2 64 -21z"/>
<path d="M772 2104 c-20 -14 -22 -24 -22 -100 0 -71 3 -87 20 -104 30 -30 93
-27 118 5 42 53 36 167 -11 200 -28 19 -76 19 -105 -1z"/>
<path d="M353 1962 c-11 -7 -16 -25 -14 -54 1 -23 61 -41 94 -29 29 11 57 47
57 73 0 15 -9 18 -62 18 -35 0 -68 -4 -75 -8z"/>
<path d="M1179 2102 c-20 -17 -24 -30 -27 -93 -3 -64 -1 -78 18 -101 30 -39
96 -40 131 -2 33 35 35 138 3 181 -27 36 -89 44 -125 15z"/>
</g>
</svg>
